<svg width="421.484680" height="260.225494" viewBox="0 0 421.485 260.225" fill="none" xmlns="http://www.w3.org/2000/svg" xmlns:xlink="http://www.w3.org/1999/xlink">
	<desc>
			Created with Pixso.
	</desc>
	<defs/>
	<path id="Форма 11" d="M287.512 60.1681L116.935 75.0916C123.013 58.7791 148.139 25.0195 200.021 20.4804C251.902 15.9414 279.966 45.0476 287.512 60.1681Z" fill-rule="evenodd" fill="#4ADE80"/>
	<path id="Линия 3" d="M156.318 41.9196L135.112 12.9474" stroke="#4ADE80" stroke-width="3.000000" stroke-linecap="round"/>
	<path id="Линия 3" d="M250.053 33.7188L265.906 1.50441" stroke="#4ADE80" stroke-width="3.000000" stroke-linecap="round"/>
	<ellipse id="Эллипс 1" rx="4.376447" ry="4.387166" transform="matrix(-0.996195 0.0871557 0.0871557 0.996195 167.083 51.9876)" fill="#FFFFFF"/>
	<ellipse id="Эллипс 1" rx="4.376447" ry="4.387166" transform="matrix(-0.996195 0.0871557 0.0871557 0.996195 237.93 45.7893)" fill="#FFFFFF"/>
	<path id="Форма 15" d="" fill-rule="nonzero" fill="#FB923C"/>
	<path id="Форма 15" d="M246.152 16.5091C242.839 26.0325 242.123 46.9093 265.758 54.2293" stroke="#FACC15"/>
	<path id="Форма 15" d="" fill-rule="nonzero" fill="#FB923C"/>
	<path id="Форма 15" d="M207.885 36.1237C217.441 39.3257 238.45 39.8421 246.039 16.2922" stroke="#FACC15"/>
	<path id="Форма 15" d="" fill-rule="nonzero" fill="#FB923C"/>
	<path id="Форма 15" d="M227.642 73.7657C230.955 64.2422 231.671 43.3654 208.036 36.0454" stroke="#FACC15"/>
	<path id="Форма 15" d="M265.793 54.2971C256.238 51.0952 235.229 50.5788 227.639 74.1287" stroke="#FACC15"/>
	<rect id="Прямоугольник 6" x="125.000031" y="89.876190" rx="10.000000" width="170.192322" height="171.000000" transform="rotate(-5 125.000031 89.876190)" fill="#4ADE80"/>
	<rect id="Прямоугольник 7" x="299.000000" y="88.848236" rx="9.764549" width="141.000000" height="19.529099" transform="rotate(-38.516 299.000000 88.848236)" fill="#4ADE80"/>
	<rect id="Прямоугольник 7" x="0.000031" y="191.848236" rx="9.764549" width="141.000000" height="19.529099" transform="rotate(-38.516 0.000031 191.848236)" fill="#4ADE80"/>
</svg>
