<svg width="421.484680" height="260.225494" viewBox="0 0 421.485 260.225" fill="none" xmlns="http://www.w3.org/2000/svg" xmlns:xlink="http://www.w3.org/1999/xlink">
	<desc>
			Created with Pixso.
	</desc>
	<defs/>
	<path id="Форма 11" d="M287.512 200.057L116.935 185.134C123.013 201.446 148.139 235.206 200.021 239.745C251.902 244.284 279.966 215.178 287.512 200.057Z" fill-rule="evenodd" fill="#4ADE80"/>
	<path id="Линия 3" d="M156.318 218.306L135.112 247.278" stroke="#4ADE80" stroke-width="3.000000" stroke-linecap="round"/>
	<path id="Линия 3" d="M250.053 226.507L265.906 258.721" stroke="#4ADE80" stroke-width="3.000000" stroke-linecap="round"/>
	<ellipse id="Эллипс 1" rx="4.376447" ry="4.387166" transform="matrix(-0.996195 -0.0871557 0.0871557 -0.996195 167.083 208.238)" fill="#FFFFFF"/>
	<ellipse id="Эллипс 1" rx="4.376447" ry="4.387166" transform="matrix(-0.996195 -0.0871557 0.0871557 -0.996195 237.93 214.436)" fill="#FFFFFF"/>
	<path id="Форма 15" d="" fill-rule="nonzero" fill="#FB923C"/>
	<path id="Форма 15" d="M246.152 243.716C242.839 234.193 242.123 213.316 265.758 205.996" stroke="#FACC15"/>
	<path id="Форма 15" d="" fill-rule="nonzero" fill="#FB923C"/>
	<path id="Форма 15" d="M207.885 224.102C217.441 220.9 238.45 220.383 246.039 243.933" stroke="#FACC15"/>
	<path id="Форма 15" d="" fill-rule="nonzero" fill="#FB923C"/>
	<path id="Форма 15" d="M227.642 186.46C230.955 195.983 231.671 216.86 208.036 224.18" stroke="#FACC15"/>
	<path id="Форма 15" d="M265.793 205.928C256.238 209.13 235.229 209.647 227.639 186.097" stroke="#FACC15"/>
	<rect id="Прямоугольник 6" rx="10.000000" width="170.192322" height="171.000000" transform="matrix(0.996195 0.0871557 0.0871557 -0.996195 125 170.349)" fill="#4ADE80"/>
	<rect id="Прямоугольник 7" rx="9.764549" width="141.000000" height="19.529099" transform="matrix(0.782435 0.622733 0.622733 -0.782435 299 171.377)" fill="#4ADE80"/>
	<rect id="Прямоугольник 7" rx="9.764549" width="141.000000" height="19.529099" transform="matrix(0.782435 0.622733 0.622733 -0.782435 0 68.3773)" fill="#4ADE80"/>
</svg>
