<svg width="171.228561" height="70.712158" viewBox="0 0 171.229 70.7122" fill="none" xmlns="http://www.w3.org/2000/svg" xmlns:xlink="http://www.w3.org/1999/xlink">
	<desc>
			Created with Pixso.
	</desc>
	<defs/>
	<path id="Форма 11" d="M171.229 61.8288L0 61.8288C7.47643 46.108 35.4493 14.6667 87.529 14.6667C139.609 14.6667 165.029 46.1081 171.229 61.8288Z" fill-rule="evenodd" fill="#4ADE80"/>
	<path id="Линия 3" d="M42.1233 32.2153L23.5234 1.50519" stroke="#4ADE80" stroke-width="3.000000" stroke-linecap="round"/>
	<path id="Линия 3" d="M136.217 32.2153L154.817 1.50519" stroke="#4ADE80" stroke-width="3.000000" stroke-linecap="round"/>
	<ellipse id="Эллипс 1" rx="4.376447" ry="4.387166" transform="matrix(-1 0 0 1 51.9704 43.1833)" fill="#FFFFFF"/>
	<ellipse id="Эллипс 1" rx="4.376447" ry="4.387166" transform="matrix(-1 0 0 1 123.088 43.1833)" fill="#FFFFFF"/>
	<path id="Форма 15" d="" fill-rule="nonzero" fill="#FB923C"/>
	<path id="Форма 15" d="M133.83 14.7311C129.7 23.9296 127.167 44.6645 150.074 54.0165" stroke="#FACC15"/>
	<path id="Форма 15" d="" fill-rule="nonzero" fill="#FB923C"/>
	<path id="Форма 15" d="M94 30.936C103.24 34.9586 124.124 37.3041 133.737 14.5053" stroke="#FACC15"/>
	<path id="Форма 15" d="" fill-rule="nonzero" fill="#FB923C"/>
	<path id="Форма 15" d="M110.401 70.1566C114.531 60.9581 117.064 40.2232 94.1569 30.8712" stroke="#FACC15"/>
	<path id="Форма 15" d="M150.104 54.0872C140.864 50.0646 119.98 47.7191 110.367 70.5179" stroke="#FACC15"/>
</svg>
